# xmcd
#
# Track frame offsets: 
#        150
#        13927
#        26711
#        40781
#        56180
#        71666
#        93058
#        105992
#        121196
#        136347
#        152605
#
# Disc length: 2224 seconds
#
# Revision: 0
# Processed by: cddbd v1.5.2PL0 Copyright (c) Steve Scherf et al.
# Submitted via: ExactAudioCopy v0.99pb5
#
DISCID=8808ae0b
DTITLE=Gin Wigmore - Gravel and Wine
DYEAR=2011
DGENRE=
TTITLE0=Black Sheep
TTITLE1=Man Like That
TTITLE2=Poison
TTITLE3=Kill of the Night
TTITLE4=Devil in Me
TTITLE5=If Only
TTITLE6=Dirty Love
TTITLE7=Happy Ever After
TTITLE8=Saturday Smile
TTITLE9=Sweet Hell
TTITLE10=Singin' My Soul
EXTD=
EXTT0=
EXTT1=
EXTT2=
EXTT3=
EXTT4=
EXTT5=
EXTT6=
EXTT7=
EXTT8=
EXTT9=
EXTT10=
PLAYORDER=
